<svg xmlns="http://www.w3.org/2000/svg" version="1.1" xmlns:xlink="http://www.w3.org/1999/xlink" xmlns:svgjs="http://svgjs.dev/svgjs" width="1000" height="219" viewBox="0 0 1000 219"><g transform="matrix(1,0,0,1,-0.6060606060606233,0.2565025485937298)"><svg viewBox="0 0 396 87" data-background-color="#1ebbd7" preserveAspectRatio="xMidYMid meet" height="219" width="1000" xmlns="http://www.w3.org/2000/svg" xmlns:xlink="http://www.w3.org/1999/xlink"><g id="tight-bounds" transform="matrix(1,0,0,1,0.2400000000000091,-0.10189827272901653)"><svg viewBox="0 0 395.52 87.20379654545805" height="87.20379654545805" width="395.52"><g><svg viewBox="0 0 622.8805052519482 137.331980309777" height="87.20379654545805" width="395.52"><g transform="matrix(1,0,0,1,227.36050525194824,18.98003490533098)"><svg viewBox="0 0 395.52 99.37191049911505" height="99.37191049911505" width="395.52"><g id="textblocktransform"><svg viewBox="0 0 395.52 99.37191049911505" height="99.37191049911505" width="395.52" id="textblock"><g><svg viewBox="0 0 395.52 53.59646017699115" height="53.59646017699115" width="395.52"><g transform="matrix(1,0,0,1,0,0)"><svg width="395.52" viewBox="3.5 -36.25 271.17 36.75" height="53.59646017699115" data-palette-color="#ffffff"><path d="M3.5 0L3.5-33.85Q3.85-33.85 5.1-33.88 6.35-33.9 7.9-33.9 9.45-33.9 11-33.93 12.55-33.95 13.55-33.95L13.55-33.95Q19.35-33.95 22.38-31.65 25.4-29.35 25.4-25.15L25.4-25.15Q25.4-22.7 24.05-20.75 22.7-18.8 20.3-17.6L20.3-17.6Q23.3-16.45 24.88-14.35 26.45-12.25 26.45-9.5L26.45-9.5Q26.45-5.2 23.2-2.58 19.95 0.05 13.35 0.05L13.35 0.05Q12 0.05 10.45 0.05 8.9 0.05 7.5 0.03 6.1 0 5.03 0 3.95 0 3.5 0L3.5 0ZM9.45-15.15L9.45-4.25 13.75-4.25Q17.15-4.25 18.63-5.78 20.1-7.3 20.1-9.6L20.1-9.6Q20.1-10.65 19.78-11.65 19.45-12.65 18.65-13.45 17.85-14.25 16.53-14.73 15.2-15.2 13.2-15.2L13.2-15.2Q12-15.2 11.08-15.2 10.15-15.2 9.45-15.15L9.45-15.15ZM9.45-29.65L9.45-19.45 13.3-19.45Q16.45-19.45 17.8-20.9 19.15-22.35 19.15-24.45L19.15-24.45Q19.15-25.4 18.85-26.35 18.55-27.3 17.82-28.05 17.1-28.8 15.88-29.25 14.65-29.7 12.8-29.7L12.8-29.7Q11.7-29.7 10.88-29.7 10.05-29.7 9.45-29.65L9.45-29.65ZM42.65-19.7Q41.75-19.7 40.85-19.25 39.95-18.8 39.25-18.03 38.55-17.25 38.1-16.15 37.65-15.05 37.65-13.7L37.65-13.7 37.65 0 31.95 0 31.95-12.6Q31.95-15.6 31.55-17.63 31.15-19.65 30.7-20.9L30.7-20.9Q30.15-22.35 29.5-23.25L29.5-23.25 34-25.05Q34.45-24.5 34.95-23.7L34.95-23.7Q35.35-23 35.75-22.05 36.15-21.1 36.4-19.8L36.4-19.8Q37.4-22.7 39.3-23.98 41.2-25.25 43.6-25.25L43.6-25.25Q44.75-25.25 45.75-24.98 46.75-24.7 46.7-24.7L46.7-24.7 45.1-19.15Q45.15-19.15 44.52-19.43 43.9-19.7 42.65-19.7L42.65-19.7ZM46.95-11.85Q46.95-15.2 47.87-17.75 48.8-20.3 50.42-22.03 52.05-23.75 54.25-24.63 56.45-25.5 59-25.5L59-25.5Q61.25-25.5 62.82-24.95 64.4-24.4 65.4-23.45 66.4-22.5 66.87-21.2 67.34-19.9 67.34-18.4L67.34-18.4Q67.34-16.6 66.34-14.98 65.34-13.35 63.47-12.13 61.59-10.9 58.95-10.18 56.3-9.45 53-9.4L53-9.4Q53.15-8.25 53.47-7.23 53.8-6.2 54.42-5.43 55.05-4.65 56.05-4.2 57.05-3.75 58.55-3.75L58.55-3.75Q59.65-3.75 60.9-4 62.14-4.25 63.2-4.6L63.2-4.6Q64.44-5 65.65-5.5L65.65-5.5 67.15-1.95Q65.84-1.3 64.34-0.8L64.34-0.8Q63.05-0.35 61.34 0 59.65 0.35 57.75 0.35L57.75 0.35Q54.84 0.35 52.8-0.53 50.75-1.4 49.45-3 48.15-4.6 47.55-6.85 46.95-9.1 46.95-11.85L46.95-11.85ZM58.55-21.6Q56.9-21.6 55.82-20.83 54.75-20.05 54.09-18.82 53.45-17.6 53.17-16.07 52.9-14.55 52.84-13L52.84-13Q55.25-13.1 56.92-13.63 58.59-14.15 59.65-14.93 60.7-15.7 61.17-16.6 61.64-17.5 61.64-18.4L61.64-18.4Q61.64-19.85 60.8-20.73 59.95-21.6 58.55-21.6L58.55-21.6ZM92.19-23.85L92.19-12.05Q92.19-9.05 92.57-7.03 92.94-5 93.39-3.75L93.39-3.75Q93.94-2.25 94.59-1.4L94.59-1.4 90.14 0.4Q89.49-0.25 88.94-1.15L88.94-1.15Q88.49-1.95 88.09-3.08 87.69-4.2 87.59-5.75L87.59-5.75Q86.74-2.75 84.87-1.23 82.99 0.3 79.79 0.3L79.79 0.3Q77.44 0.3 75.72-0.58 73.99-1.45 72.84-3.08 71.69-4.7 71.14-7 70.59-9.3 70.59-12.1L70.59-12.1Q70.59-14.95 71.47-17.38 72.34-19.8 73.92-21.55 75.49-23.3 77.69-24.3 79.89-25.3 82.54-25.3L82.54-25.3Q84.04-25.3 85.67-25.08 87.29-24.85 88.69-24.6 90.09-24.35 91.07-24.13 92.04-23.9 92.19-23.85L92.19-23.85ZM80.74-3.7Q81.99-3.7 83.04-4.55 84.09-5.4 84.87-6.78 85.64-8.15 86.07-9.93 86.49-11.7 86.49-13.55L86.49-13.55 86.49-20.75Q85.99-20.9 84.99-21.1 83.99-21.3 83.19-21.3L83.19-21.3Q81.29-21.3 80.07-20.65 78.84-20 78.09-18.85 77.34-17.7 77.04-16.1 76.74-14.5 76.74-12.6L76.74-12.6Q76.74-10.85 76.84-9.25 76.94-7.65 77.37-6.4 77.79-5.15 78.59-4.42 79.39-3.7 80.74-3.7L80.74-3.7ZM121.39-1.4L116.94 0.4Q116.84 0.35 116.49-0.08 116.14-0.5 115.72-1.25 115.29-2 114.89-3.13 114.49-4.25 114.39-5.75L114.39-5.75Q113.54-2.75 111.67-1.23 109.79 0.3 106.59 0.3L106.59 0.3Q104.24 0.3 102.52-0.58 100.79-1.45 99.64-3.08 98.49-4.7 97.94-7 97.39-9.3 97.39-12.1L97.39-12.1Q97.39-14.95 98.27-17.38 99.14-19.8 100.72-21.55 102.29-23.3 104.49-24.3 106.69-25.3 109.34-25.3L109.34-25.3Q110.24-25.3 111.27-25.2 112.29-25.1 113.29-24.95L113.29-24.95 113.29-36.25 118.99-35.25 118.99-12.05Q118.99-9.05 119.34-7.08 119.69-5.1 120.14-3.88 120.59-2.65 120.97-2.1 121.34-1.55 121.39-1.4L121.39-1.4ZM107.54-3.75Q108.79-3.75 109.84-4.6 110.89-5.45 111.67-6.83 112.44-8.2 112.87-9.95 113.29-11.7 113.29-13.55L113.29-13.55 113.29-20.75Q112.79-20.9 111.79-21.1 110.79-21.3 109.99-21.3L109.99-21.3Q108.09-21.3 106.87-20.65 105.64-20 104.89-18.85 104.14-17.7 103.84-16.1 103.54-14.5 103.54-12.6L103.54-12.6Q103.54-10.85 103.64-9.25 103.74-7.65 104.17-6.43 104.59-5.2 105.39-4.48 106.19-3.75 107.54-3.75L107.54-3.75ZM142.39-22.1L139.19-19.05Q138.44-19.9 137.66-20.5 136.89-21.1 135.59-21.1L135.59-21.1Q134.84-21.1 133.91-20.88 132.99-20.65 132.19-19.78 131.39-18.9 130.86-17.2 130.34-15.5 130.34-12.6L130.34-12.6Q130.34-9.65 130.86-7.93 131.39-6.2 132.21-5.25 133.04-4.3 133.99-4.03 134.94-3.75 135.84-3.75L135.84-3.75Q136.54-3.75 137.29-3.88 138.04-4 138.74-4.17 139.44-4.35 139.96-4.5 140.49-4.65 140.74-4.75L140.74-4.75 142.14-1.15Q141.99-1.1 141.46-0.85 140.94-0.6 140.04-0.35 139.14-0.1 137.89 0.13 136.64 0.35 135.09 0.35L135.09 0.35Q132.19 0.35 130.14-0.53 128.09-1.4 126.76-3 125.44-4.6 124.81-6.85 124.19-9.1 124.19-11.85L124.19-11.85Q124.19-15.15 125.06-17.7 125.94-20.25 127.49-21.98 129.04-23.7 131.14-24.6 133.24-25.5 135.64-25.5L135.64-25.5Q137.99-25.5 139.61-24.6 141.24-23.7 142.39-22.1L142.39-22.1ZM157.34-19.7Q156.44-19.7 155.53-19.25 154.63-18.8 153.94-18.03 153.24-17.25 152.78-16.15 152.34-15.05 152.34-13.7L152.34-13.7 152.34 0 146.63 0 146.63-12.6Q146.63-15.6 146.24-17.63 145.84-19.65 145.38-20.9L145.38-20.9Q144.84-22.35 144.19-23.25L144.19-23.25 148.69-25.05Q149.13-24.5 149.63-23.7L149.63-23.7Q150.03-23 150.44-22.05 150.84-21.1 151.09-19.8L151.09-19.8Q152.09-22.7 153.99-23.98 155.88-25.25 158.28-25.25L158.28-25.25Q159.44-25.25 160.44-24.98 161.44-24.7 161.38-24.7L161.38-24.7 159.78-19.15Q159.84-19.15 159.21-19.43 158.59-19.7 157.34-19.7L157.34-19.7ZM179.43-12.7L179.43-24.9 185.13-24.9 185.13-12.05Q185.13-9.05 185.51-7.03 185.88-5 186.33-3.75L186.33-3.75Q186.88-2.25 187.53-1.4L187.53-1.4 183.08 0.4Q182.48-0.15 181.98-1L181.98-1Q181.58-1.7 181.16-2.73 180.73-3.75 180.58-5.15L180.58-5.15Q179.23-2.2 176.78-0.95 174.33 0.3 171.68 0.3L171.68 0.3Q167.73 0.3 166.06-2 164.38-4.3 164.38-8.3L164.38-8.3 164.38-24.9 170.08-24.9 170.08-8.4Q170.08-6.3 170.83-5.1 171.58-3.9 173.38-3.9L173.38-3.9Q174.48-3.9 175.56-4.53 176.63-5.15 177.51-6.3 178.38-7.45 178.91-9.08 179.43-10.7 179.43-12.7L179.43-12.7ZM226.28 0L220.63 0 220.63-16.3Q220.63-18.4 219.98-19.63 219.33-20.85 217.73-20.85L217.73-20.85Q216.78-20.85 215.8-20.33 214.83-19.8 214.03-18.8 213.23-17.8 212.73-16.4 212.23-15 212.23-13.3L212.23-13.3 212.23 0 206.58 0 206.58-16.3Q206.58-18.4 205.93-19.63 205.28-20.85 203.68-20.85L203.68-20.85Q202.68-20.85 201.7-20.28 200.73-19.7 199.95-18.6 199.18-17.5 198.7-15.93 198.23-14.35 198.23-12.4L198.23-12.4 198.23 0 192.53 0 192.53-12.6Q192.53-15.6 192.13-17.63 191.73-19.65 191.28-20.9L191.28-20.9Q190.73-22.35 190.08-23.25L190.08-23.25 194.58-25.05Q195.08-24.5 195.58-23.7L195.58-23.7Q195.98-23 196.38-21.98 196.78-20.95 197.03-19.65L197.03-19.65Q198.28-22.65 200.55-23.98 202.83-25.3 205.38-25.3L205.38-25.3Q207.93-25.3 209.35-24 210.78-22.7 211.48-20.65L211.48-20.65Q212.83-23.15 214.95-24.23 217.08-25.3 219.43-25.3L219.43-25.3Q221.38-25.3 222.7-24.68 224.03-24.05 224.8-22.93 225.58-21.8 225.93-20.23 226.28-18.65 226.28-16.7L226.28-16.7 226.28 0ZM232.53-1.15L232.53-35.25 238.23-36.25 238.23-21Q239.13-23.05 240.75-24.18 242.38-25.3 244.93-25.3L244.93-25.3Q247.28-25.3 249-24.43 250.73-23.55 251.88-21.93 253.03-20.3 253.58-18 254.13-15.7 254.13-12.9L254.13-12.9Q254.13-10.05 253.25-7.63 252.38-5.2 250.8-3.45 249.23-1.7 247.03-0.7 244.83 0.3 242.18 0.3L242.18 0.3Q240.68 0.3 238.98 0.08 237.28-0.15 235.83-0.4L235.83-0.4Q234.18-0.7 232.53-1.15L232.53-1.15ZM243.98-21.3Q242.73-21.3 241.68-20.45 240.63-19.6 239.85-18.2 239.08-16.8 238.65-15.05 238.23-13.3 238.23-11.45L238.23-11.45 238.23-4.2Q238.68-4.1 239.68-3.9 240.68-3.7 241.53-3.7L241.53-3.7Q243.38-3.7 244.63-4.35 245.88-5 246.63-6.15 247.38-7.3 247.68-8.9 247.98-10.5 247.98-12.4L247.98-12.4Q247.98-14.15 247.88-15.75 247.78-17.35 247.35-18.6 246.93-19.85 246.13-20.58 245.33-21.3 243.98-21.3L243.98-21.3ZM266.47-25.5L266.47-25.5Q267.92-25.5 269.32-25.2 270.72-24.9 271.82-24.5L271.82-24.5Q273.13-24.05 274.22-23.55L274.22-23.55 272.52-19.65Q271.52-20.1 270.52-20.45L270.52-20.45Q269.67-20.75 268.65-21.03 267.63-21.3 266.63-21.3L266.63-21.3Q265.47-21.3 264.65-20.75 263.82-20.2 263.82-19.1L263.82-19.1Q263.82-16.25 267.97-14.65L267.97-14.65Q269.52-14.05 270.77-13.38 272.02-12.7 272.9-11.8 273.77-10.9 274.22-9.73 274.67-8.55 274.67-6.95L274.67-6.95Q274.67-5.55 274.1-4.2 273.52-2.85 272.4-1.8 271.27-0.75 269.65-0.13 268.02 0.5 265.97 0.5L265.97 0.5Q264.32 0.5 262.72 0.13 261.13-0.25 259.85-0.7 258.57-1.15 257.82-1.55L257.82-1.55 257.07-1.9 258.92-6.1 259.57-5.75Q260.22-5.35 261.22-4.9 262.22-4.45 263.38-4.08 264.52-3.7 265.47-3.7L265.47-3.7Q267.22-3.7 268.07-4.4 268.92-5.1 268.92-6.25L268.92-6.25Q268.92-7.55 268-8.63 267.07-9.7 265.22-10.4L265.22-10.4Q261.38-11.85 259.7-13.7 258.02-15.55 258.02-18.5L258.02-18.5Q258.02-19.9 258.67-21.18 259.32-22.45 260.45-23.43 261.57-24.4 263.13-24.95 264.67-25.5 266.47-25.5Z" opacity="1" transform="matrix(1,0,0,1,0,0)" fill="#ffffff" class="wordmark-text-0" data-fill-palette-color="primary" id="text-0"></path></svg></g></svg></g><g transform="matrix(1,0,0,1,0,66.24929810973451)"><svg viewBox="0 0 205.6139587639166 33.12261238938053" height="33.12261238938053" width="205.6139587639166"><g transform="matrix(1,0,0,1,0,0)"><svg width="205.6139587639166" viewBox="0.9 -37.5 307.86 49.6" height="33.12261238938053" data-palette-color="#ffffff"><path d="M9.6 0L9.6-30.85 0.9-30.85 0.9-35 22.9-35 22.9-30.85 14.2-30.85 14.2 0 9.6 0ZM22.65 0L22.65-24.5 26.2-24.5 26.75-20.4Q28.4-22.8 29.87-23.9 31.35-25 33-25L33-25Q33.65-25 34.15-24.85L34.15-24.85 33.7-19.9Q33.05-20.05 32.2-20.05L32.2-20.05Q30.55-20.05 29.1-19.23 27.65-18.4 27-17.3L27-17.3 27 0 22.65 0ZM41.9 0.5Q39.09 0.5 37.3-1.5 35.5-3.5 35.5-6.6L35.5-6.6Q35.5-11.2 39.34-13.23 43.2-15.25 47.95-15.35L47.95-15.35Q47.95-18.55 47-19.8 46.05-21.05 43.8-21.05L43.8-21.05Q40.9-21.05 37.9-18.8L37.9-18.8 37.34-22.45Q40.5-25 44.65-25L44.65-25Q48.59-25 50.5-22.73 52.4-20.45 52.4-15.4L52.4-15.4 52.4-8.25Q52.4-5.4 52.8-4.23 53.2-3.05 54.55-3.05L54.55-3.05 55.09-3.05 54.55 0.5 53.59 0.5Q51.3 0.5 50.2-0.35 49.09-1.2 48.4-3.1L48.4-3.1Q47.25-1.45 45.55-0.48 43.84 0.5 41.9 0.5L41.9 0.5ZM43.25-3.05Q44.45-3.05 45.75-3.98 47.05-4.9 47.95-6.4L47.95-6.4 47.95-12.25Q44.09-12.05 42.09-10.78 40.09-9.5 40.09-6.85L40.09-6.85Q40.09-3.05 43.25-3.05L43.25-3.05ZM58.89-30.05L58.89-35 63.24-35 63.24-30.05 58.89-30.05ZM58.89 0L58.89-24.5 63.24-24.5 63.24 0 58.89 0ZM74.44 0.5Q71.64 0.5 70.29-1.2 68.94-2.9 68.94-5.4L68.94-5.4 68.94-37.5 73.29-37.5 73.29-8Q73.29-5.8 73.52-4.78 73.74-3.75 74.39-3.4 75.04-3.05 76.49-3.05L76.49-3.05 75.94 0.5 74.44 0.5ZM91.54 12.1L96.44-1.1 87.49-24.5 92.14-24.5 98.69-6.25 104.69-24.5 109.34-24.5 96.19 12.1 91.54 12.1ZM120.93 0.5Q117.63 0.5 115.23-1.18 112.83-2.85 111.56-5.75 110.28-8.65 110.28-12.25L110.28-12.25Q110.28-15.85 111.56-18.75 112.83-21.65 115.23-23.33 117.63-25 120.93-25L120.93-25Q124.18-25 126.58-23.33 128.98-21.65 130.23-18.75 131.48-15.85 131.48-12.25L131.48-12.25Q131.48-8.65 130.23-5.75 128.98-2.85 126.58-1.18 124.18 0.5 120.93 0.5L120.93 0.5ZM120.93-3.35Q123.83-3.35 125.43-5.7 127.03-8.05 127.03-12.25L127.03-12.25Q127.03-16.45 125.43-18.78 123.83-21.1 120.93-21.1L120.93-21.1Q117.93-21.1 116.33-18.78 114.73-16.45 114.73-12.25L114.73-12.25Q114.73-8 116.33-5.68 117.93-3.35 120.93-3.35L120.93-3.35ZM148.68-24.5L153.03-24.5 153.03 0 149.33 0 149.03-3Q148.03-1.35 146.33-0.43 144.63 0.5 142.58 0.5L142.58 0.5Q138.73 0.5 136.86-2.08 134.98-4.65 134.98-9.45L134.98-9.45 134.98-24.5 139.33-24.5 139.33-10Q139.33-6.7 140.31-5.08 141.28-3.45 143.58-3.45L143.58-3.45Q145.18-3.45 146.48-4.35 147.78-5.25 148.68-6.85L148.68-6.85 148.68-24.5ZM159.28 0L159.28-24.5 162.83-24.5 163.38-20.4Q165.03-22.8 166.5-23.9 167.98-25 169.63-25L169.63-25Q170.28-25 170.78-24.85L170.78-24.85 170.33-19.9Q169.68-20.05 168.83-20.05L168.83-20.05Q167.18-20.05 165.73-19.23 164.28-18.4 163.63-17.3L163.63-17.3 163.63 0 159.28 0ZM207.87-25Q215.97-25 215.97-14L215.97-14 215.97 0 211.62 0 211.62-13.45Q211.62-17.45 210.55-19.23 209.47-21 206.92-21L206.92-21Q204.47-21 203.17-19.2 201.87-17.4 201.87-14L201.87-14 201.87 0 197.52 0 197.52-13.45Q197.52-17.3 196.45-19.15 195.37-21 193.12-21L193.12-21Q191.47-21 190.07-20.1 188.67-19.2 187.72-17.6L187.72-17.6 187.72 0 183.37 0 183.37-24.5 186.97-24.5 187.32-21.4Q188.37-23.05 190.17-24.03 191.97-25 194.12-25L194.12-25Q196.37-25 198-23.93 199.62-22.85 200.57-20.85L200.57-20.85Q201.52-22.8 203.4-23.9 205.27-25 207.87-25L207.87-25ZM229.97 0.5Q226.67 0.5 224.27-1.18 221.87-2.85 220.6-5.75 219.32-8.65 219.32-12.25L219.32-12.25Q219.32-15.85 220.6-18.75 221.87-21.65 224.27-23.33 226.67-25 229.97-25L229.97-25Q233.22-25 235.62-23.33 238.02-21.65 239.27-18.75 240.52-15.85 240.52-12.25L240.52-12.25Q240.52-8.65 239.27-5.75 238.02-2.85 235.62-1.18 233.22 0.5 229.97 0.5L229.97 0.5ZM229.97-3.35Q232.87-3.35 234.47-5.7 236.07-8.05 236.07-12.25L236.07-12.25Q236.07-16.45 234.47-18.78 232.87-21.1 229.97-21.1L229.97-21.1Q226.97-21.1 225.37-18.78 223.77-16.45 223.77-12.25L223.77-12.25Q223.77-8 225.37-5.68 226.97-3.35 229.97-3.35L229.97-3.35ZM254.97-25Q258.77-25 260.79-22.03 262.82-19.05 262.82-14L262.82-14 262.82 0 258.47 0 258.47-13.45Q258.47-17.35 257.34-19.23 256.22-21.1 253.97-21.1L253.97-21.1Q252.32-21.1 250.92-20.18 249.52-19.25 248.57-17.6L248.57-17.6 248.57 0 244.22 0 244.22-24.5 247.92-24.5 248.22-21.45Q249.27-23.1 251.04-24.05 252.82-25 254.97-25L254.97-25ZM278.02 0.5Q274.32 0.5 271.69-1.23 269.07-2.95 267.74-5.9 266.42-8.85 266.42-12.45L266.42-12.45Q266.42-15.9 267.64-18.78 268.87-21.65 271.19-23.33 273.52-25 276.72-25L276.72-25Q280.82-25 283.39-22.25 285.97-19.5 285.97-14.65L285.97-14.65Q285.97-13.8 285.77-12.3L285.77-12.3 270.87-12.3Q271.02-7.95 273.04-5.7 275.07-3.45 278.32-3.45L278.32-3.45Q279.87-3.45 281.59-3.83 283.32-4.2 284.62-4.9L284.62-4.9 285.02-1Q282.27 0.5 278.02 0.5L278.02 0.5ZM271.07-15.35L281.52-15.35Q281.52-17.85 280.29-19.43 279.07-21 276.77-21L276.77-21Q274.52-21 273.04-19.6 271.57-18.2 271.07-15.35L271.07-15.35ZM290.96 12.1L295.86-1.1 286.91-24.5 291.56-24.5 298.11-6.25 304.11-24.5 308.76-24.5 295.61 12.1 290.96 12.1Z" opacity="1" transform="matrix(1,0,0,1,0,0)" fill="#ffffff" class="slogan-text-1" data-fill-palette-color="secondary" id="text-1"></path></svg></g></svg></g></svg></g></svg></g><g><svg viewBox="0 0 214.7076673192049 137.331980309777" height="137.331980309777" width="214.7076673192049"><g><svg xmlns="http://www.w3.org/2000/svg" xmlns:xlink="http://www.w3.org/1999/xlink" version="1.1" x="0" y="0" viewBox="9.479922079517408 24.071675727463408 81.02947747872412 51.8283242725366" style="enable-background:new 0 0 100 100;" xml:space="preserve" height="137.331980309777" width="214.7076673192049" class="icon-icon-0" data-fill-palette-color="accent" id="icon-0"><path d="M35.6 75.9c-6.8 0-13.5-2.4-18.4-7-7.4-7-9.8-18.6-5.8-28.2 3.5-8.5 12.1-12.4 18.4-13.1 4.9-0.6 8.5-1.4 10.4-2.4 3.8-1.9 11.3-1.1 15.1 0.2 5.8 1.9 11.2 6 16.3 11.9 2.4 2.9 3.9 6.3 4.7 10.7 0.6 3.9-0.5 9-4.3 11.6-0.7 0.5-1.6 0.3-2.1-0.4l-0.3-0.4c-1.6-2.2-2.5-3.5-4.8-4.5-1.7-0.7-3-0.9-3.8-0.6-0.3 0.1-0.7 0.4-1 1.1-0.2 0.5-0.6 0.9-1.2 0.9-0.5 0.1-1.1-0.1-1.4-0.5-1.1-1.3-3-2-5.2-2 0 0 0 0-0.1 0-3 0-6 1.3-7.5 3.2l-0.2 0.2c-0.7 0.8-2 2.5-1.7 3.2 0.1 0.2 0.3 0.5 0.5 0.8 0.3 0.4 0.6 0.8 0.8 1.3 0.9 1.7 0.3 3.2-0.2 4.2-0.2 0.5-0.4 1.1-0.5 1.6-0.1 1.3 1 2.6 2.2 3.2 0.5 0.3 0.9 0.8 0.9 1.4s-0.4 1.1-1 1.3C42.4 75.3 39 75.9 35.6 75.9zM46.4 27.1c-1.9 0-3.7 0.2-4.8 0.8-2.3 1.1-6.1 2-11.4 2.7-5.9 0.7-13.2 4.5-16 11.3-3.5 8.5-1.5 18.7 5 24.8C25.1 72.2 34 74.2 42 72c-1-1.2-1.6-2.7-1.5-4.3 0.1-1 0.4-1.8 0.7-2.4 0.4-1 0.5-1.3 0.3-1.7-0.1-0.3-0.4-0.6-0.6-0.9-0.3-0.4-0.6-0.8-0.8-1.3C39 59 40.9 56.6 42.1 55l0.2-0.2c2.1-2.6 6-4.3 9.8-4.3 2.4 0 4.5 0.6 6.1 1.8 0.4-0.5 0.9-0.8 1.5-1 1.6-0.7 3.7-0.5 6.2 0.6 2.6 1.1 4 2.7 5.4 4.6 1.6-1.8 2.4-4.8 2-7.7-0.7-3.8-2-6.8-4.1-9.3-4.7-5.5-9.7-9.3-14.9-11C52.4 27.6 49.2 27.1 46.4 27.1z" fill="#ffffff" data-fill-palette-color="accent"></path><path d="M64.6 72.6c-0.5 0-1-0.1-1.5-0.2-0.3-0.1-0.5-0.1-0.7-0.2-1.2-0.3-2.5-0.6-4.5-2.2-0.9-0.7-1.5-1.9-1.5-3 0-0.9 0.4-1.7 1.1-2.2 0.7-0.5 1.6-0.4 2.1 0.3 0.5 0.6 0.4 1.5-0.2 2 0 0.2 0.2 0.5 0.4 0.6 1.5 1.2 2.2 1.4 3.3 1.6 0.2 0.1 0.5 0.1 0.7 0.2 0.5 0.1 1.1 0.1 1.5 0 0.4-0.1 0.6-0.6 0.6-0.8 0.2-0.6 0.1-1.3-0.2-1.8-0.7-1-2.4-1.2-3.5-0.8-0.8 0.3-1.6-0.1-1.9-0.9-0.3-0.8 0.1-1.6 0.9-1.9 2.2-0.9 5.5-0.5 7.1 1.8 0.8 1.2 1 2.9 0.5 4.4-0.5 1.3-1.4 2.3-2.6 2.7C65.6 72.6 65.1 72.6 64.6 72.6z" fill="#ffffff" data-fill-palette-color="accent"></path><path d="M79.5 73.3c-0.7 0-1.3-0.5-1.5-1.2-0.8-3.6 1.5-7.6 4.9-8.5 1.9-0.5 4 0.1 5.6 1.4 1.4 1.2 2.1 2.9 2 4.6 0 0.1 0 0.3-0.1 0.4-1.4 3.5-4.1 2.7-5.4 2.4-0.5-0.1-1-0.3-1.4-0.2-0.8 0.1-1.6-0.4-1.7-1.3-0.1-0.8 0.4-1.6 1.3-1.7 1-0.1 1.8 0.1 2.6 0.3 1.3 0.4 1.4 0.4 1.7-0.4 0-0.9-0.6-1.6-0.9-1.8-0.8-0.7-2-1-2.9-0.8-1.9 0.5-3.2 2.8-2.7 4.9 0.2 0.8-0.3 1.6-1.2 1.8C79.7 73.3 79.6 73.3 79.5 73.3z" fill="#ffffff" data-fill-palette-color="accent"></path><path d="M24.3 59.9c-0.2 0-0.4 0-0.5-0.1-0.8-0.3-1.2-1.2-0.9-1.9 0.7-1.8 2.2-3.3 4.2-4 1.9-0.7 4-0.6 5.6 0.3 0.7 0.4 1 1.3 0.6 2-0.4 0.7-1.3 1-2 0.6-0.9-0.5-2-0.5-3.1-0.1-1.1 0.4-2.1 1.3-2.4 2.3C25.5 59.5 24.9 59.9 24.3 59.9z" fill="#ffffff" data-fill-palette-color="accent"></path><path d="M49.7 42.9c-0.3 0-0.7-0.1-1-0.4C48.1 42 48 41 48.6 40.4c1.1-1.3 2.9-2.1 4.8-2.2 1.9-0.1 3.8 0.6 5.1 1.8 0.6 0.6 0.6 1.5 0.1 2.1-0.6 0.6-1.5 0.6-2.1 0.1-0.7-0.7-1.8-1.1-2.9-1-1.1 0.1-2 0.5-2.6 1.2C50.5 42.7 50.1 42.9 49.7 42.9z" fill="#ffffff" data-fill-palette-color="accent"></path><path d="M35.3 41.1c-0.3 0-0.6-0.1-0.9-0.3-1.7-1.3-4.3-1.5-6.1-0.6-0.7 0.4-1.6 0.1-2-0.7-0.4-0.7-0.1-1.6 0.7-2 2.9-1.4 6.6-1.1 9.3 0.8 0.7 0.5 0.8 1.4 0.3 2.1C36.2 40.9 35.8 41.1 35.3 41.1z" fill="#ffffff" data-fill-palette-color="accent"></path></svg></g></svg></g></svg></g><defs></defs></svg><rect width="395.52" height="87.20379654545805" fill="none" stroke="none" visibility="hidden"></rect></g></svg></g></svg>